<svg width="143" height="45" viewBox="0 0 143 45" fill="none" xmlns="http://www.w3.org/2000/svg">
<ellipse cx="70.525" cy="20.8467" rx="14.625" ry="14.8897" fill="#FF6600"/>
<path d="M15.2191 20.8806C15.2191 23.4967 14.6656 25.575 13.5586 27.1157C12.4516 28.6564 10.9434 29.4267 9.03398 29.4267C7.78477 29.4267 6.67266 29.1682 5.69766 28.6512C4.72266 28.1342 3.96094 27.4207 3.4125 26.5108V35.5687H2.58984V12.3346H3.4125V15.328C3.98125 14.263 4.74805 13.4461 5.71289 12.8774C6.67773 12.3087 7.77461 12.0244 9.00352 12.0244C10.9332 12.0244 12.4516 12.7792 13.5586 14.2888C14.6656 15.7881 15.2191 17.8975 15.2191 20.617V20.8806ZM14.3812 20.5549C14.3812 18.1457 13.909 16.2638 12.9645 14.9092C12.0301 13.5443 10.7148 12.8619 9.01875 12.8619C7.6375 12.8619 6.46445 13.229 5.49961 13.9631C4.53477 14.6869 3.83906 15.7313 3.4125 17.0962V24.9443C3.83906 26.1024 4.53477 27.002 5.49961 27.643C6.47461 28.2738 7.65781 28.5892 9.04922 28.5892C10.7352 28.5892 12.0453 27.9067 12.9797 26.5418C13.9141 25.1769 14.3812 23.1813 14.3812 20.5549Z" fill="#333333"/>
<path d="M20.734 29.1165H19.9113V12.3346H20.734V29.1165ZM19.4848 7.09214C19.4848 6.85432 19.566 6.65269 19.7285 6.48725C19.891 6.31147 20.0891 6.22358 20.3227 6.22358C20.5562 6.22358 20.7543 6.31147 20.9168 6.48725C21.0895 6.65269 21.1758 6.85432 21.1758 7.09214C21.1758 7.32996 21.0895 7.53159 20.9168 7.69704C20.7543 7.86248 20.5562 7.9452 20.3227 7.9452C20.0891 7.9452 19.891 7.86248 19.7285 7.69704C19.566 7.53159 19.4848 7.32996 19.4848 7.09214Z" fill="#333333"/>
<path d="M38.741 20.8806C38.741 23.4967 38.1875 25.575 37.0805 27.1157C35.9734 28.6564 34.4652 29.4267 32.5559 29.4267C31.3066 29.4267 30.1945 29.1682 29.2195 28.6512C28.2445 28.1342 27.4828 27.4207 26.9344 26.5108V35.5687H26.1117V12.3346H26.9344V15.328C27.5031 14.263 28.2699 13.4461 29.2348 12.8774C30.1996 12.3087 31.2965 12.0244 32.5254 12.0244C34.4551 12.0244 35.9734 12.7792 37.0805 14.2888C38.1875 15.7881 38.741 17.8975 38.741 20.617V20.8806ZM37.9031 20.5549C37.9031 18.1457 37.4309 16.2638 36.4863 14.9092C35.552 13.5443 34.2367 12.8619 32.5406 12.8619C31.1594 12.8619 29.9863 13.229 29.0215 13.9631C28.0566 14.6869 27.3609 15.7313 26.9344 17.0962V24.9443C27.3609 26.1024 28.0566 27.002 29.0215 27.643C29.9965 28.2738 31.1797 28.5892 32.5711 28.5892C34.257 28.5892 35.5672 27.9067 36.5016 26.5418C37.4359 25.1769 37.9031 23.1813 37.9031 20.5549Z" fill="#333333"/>
<path d="M49.1613 29.4267C47.8309 29.4267 46.607 29.0648 45.4898 28.341C44.3828 27.6068 43.5145 26.6039 42.8848 25.332C42.2551 24.0602 41.9402 22.6488 41.9402 21.0978V20.3998C41.9402 18.8488 42.2449 17.427 42.8543 16.1345C43.4637 14.842 44.3016 13.8339 45.368 13.1101C46.4344 12.3863 47.5973 12.0244 48.8566 12.0244C50.6949 12.0244 52.198 12.6913 53.366 14.0252C54.534 15.359 55.118 17.1117 55.118 19.2831V20.1672H42.7629V21.0823C42.7629 22.4472 43.0422 23.7138 43.6008 24.8822C44.1695 26.0403 44.9465 26.9503 45.9316 27.612C46.927 28.2738 48.0035 28.6047 49.1613 28.6047C50.2684 28.6047 51.2078 28.4185 51.9797 28.0463C52.7617 27.6637 53.4523 27.0795 54.0516 26.2937L54.6305 26.7124C53.4016 28.5219 51.5785 29.4267 49.1613 29.4267ZM48.8566 12.8619C47.252 12.8619 45.891 13.472 44.7738 14.6921C43.6566 15.9019 43.0016 17.4477 42.8086 19.3296H54.2953V19.128C54.2953 17.9906 54.0566 16.9359 53.5793 15.9639C53.1121 14.9816 52.4621 14.2216 51.6293 13.6839C50.8066 13.1359 49.8824 12.8619 48.8566 12.8619Z" fill="#333333"/>
<path d="M72.6466 24.4014C72.6466 23.9568 72.4181 23.6001 71.9611 23.3312C71.5041 23.0624 70.6357 22.7832 69.356 22.4937C68.0763 22.2042 67.0201 21.8267 66.1873 21.3614C65.3545 20.8858 64.7197 20.3119 64.283 19.6398C63.8462 18.9677 63.6279 18.1974 63.6279 17.3288C63.6279 15.7881 64.2525 14.5215 65.5017 13.5288C66.7509 12.5259 68.3861 12.0244 70.4072 12.0244C72.5806 12.0244 74.3275 12.5259 75.6478 13.5288C76.9681 14.5318 77.6283 15.8502 77.6283 17.4839H72.4791C72.4791 16.1397 71.7834 15.4676 70.392 15.4676C69.8537 15.4676 69.4017 15.6227 69.0361 15.9329C68.6705 16.2328 68.4877 16.6102 68.4877 17.0651C68.4877 17.5304 68.7111 17.9079 69.158 18.1974C69.6048 18.4869 70.3158 18.7247 71.2908 18.9108C72.2759 19.097 73.1392 19.3193 73.8806 19.5778C76.3587 20.4463 77.5978 22.0025 77.5978 24.2463C77.5978 25.7767 76.9275 27.0226 75.5869 27.9843C74.2564 28.9459 72.5298 29.4267 70.4072 29.4267C68.9955 29.4267 67.7361 29.1682 66.6291 28.6512C65.522 28.1342 64.6587 27.4311 64.0392 26.5418C63.4197 25.6526 63.1099 24.7168 63.1099 23.7345H67.9087C67.9291 24.51 68.183 25.0787 68.6705 25.4406C69.158 25.7922 69.7826 25.9679 70.5443 25.9679C71.2451 25.9679 71.7681 25.8232 72.1134 25.5337C72.4689 25.2441 72.6466 24.8667 72.6466 24.4014Z" fill="#333333"/>
<path d="M89.2978 29.1165C89.115 28.7753 88.9525 28.2738 88.8103 27.612C87.8658 28.8218 86.5455 29.4267 84.8494 29.4267C83.2955 29.4267 81.9752 28.9511 80.8884 27.9998C79.8017 27.0381 79.2584 25.8335 79.2584 24.3859C79.2584 22.5661 79.9185 21.1908 81.2388 20.2602C82.5591 19.3296 84.4787 18.8643 86.9974 18.8643H88.5818V17.9802C88.5818 16.4396 87.9267 15.6692 86.6166 15.6692C85.3978 15.6692 84.7884 16.2793 84.7884 17.4994H79.6544C79.6544 15.876 80.3298 14.5577 81.6806 13.5443C83.0416 12.531 84.7732 12.0244 86.8755 12.0244C88.9779 12.0244 90.6384 12.5465 91.8572 13.5909C93.0759 14.6352 93.7005 16.0673 93.731 17.8872V25.3165C93.7513 26.8572 93.9849 28.036 94.4318 28.8528V29.1165H89.2978ZM86.0834 25.7043C86.7232 25.7043 87.2513 25.5647 87.6677 25.2855C88.0943 25.0063 88.399 24.6909 88.5818 24.3394V21.6561H87.0888C85.3013 21.6561 84.4076 22.473 84.4076 24.1067C84.4076 24.5824 84.565 24.9701 84.8798 25.27C85.1947 25.5595 85.5959 25.7043 86.0834 25.7043Z" fill="#333333"/>
<path d="M102.003 29.1165H96.8541V5.29297H102.003V29.1165Z" fill="#333333"/>
<path d="M113.155 29.4267C110.626 29.4267 108.579 28.6615 107.015 27.1312C105.451 25.5905 104.669 23.5897 104.669 21.1288V20.6945C104.669 18.9781 104.979 17.4632 105.599 16.15C106.228 14.8369 107.142 13.8235 108.341 13.1101C109.539 12.3863 110.961 12.0244 112.606 12.0244C114.922 12.0244 116.75 12.7585 118.091 14.2268C119.431 15.6847 120.102 17.7217 120.102 20.3378V22.3696H109.895C110.077 23.3105 110.479 24.0499 111.098 24.5875C111.718 25.1252 112.52 25.3941 113.505 25.3941C115.13 25.3941 116.4 24.815 117.314 23.6569L119.66 26.4798C119.02 27.3794 118.111 28.098 116.933 28.6357C115.765 29.163 114.506 29.4267 113.155 29.4267ZM112.576 16.057C111.073 16.057 110.179 17.0703 109.895 19.097H115.074V18.6937C115.095 17.8562 114.886 17.2099 114.45 16.7549C114.013 16.2896 113.388 16.057 112.576 16.057Z" fill="#333333"/>
<path d="M130.811 24.4014C130.811 23.9568 130.583 23.6001 130.126 23.3312C129.669 23.0624 128.801 22.7832 127.521 22.4937C126.241 22.2042 125.185 21.8267 124.352 21.3614C123.519 20.8858 122.885 20.3119 122.448 19.6398C122.011 18.9677 121.793 18.1974 121.793 17.3288C121.793 15.7881 122.417 14.5215 123.667 13.5288C124.916 12.5259 126.551 12.0244 128.572 12.0244C130.745 12.0244 132.492 12.5259 133.813 13.5288C135.133 14.5318 135.793 15.8502 135.793 17.4839H130.644C130.644 16.1397 129.948 15.4676 128.557 15.4676C128.019 15.4676 127.567 15.6227 127.201 15.9329C126.835 16.2328 126.652 16.6102 126.652 17.0651C126.652 17.5304 126.876 17.9079 127.323 18.1974C127.77 18.4869 128.481 18.7247 129.456 18.9108C130.441 19.097 131.304 19.3193 132.045 19.5778C134.524 20.4463 135.763 22.0025 135.763 24.2463C135.763 25.7767 135.092 27.0226 133.752 27.9843C132.421 28.9459 130.695 29.4267 128.572 29.4267C127.16 29.4267 125.901 29.1682 124.794 28.6512C123.687 28.1342 122.824 27.4311 122.204 26.5418C121.585 25.6526 121.275 24.7168 121.275 23.7345H126.074C126.094 24.51 126.348 25.0787 126.835 25.4406C127.323 25.7922 127.947 25.9679 128.709 25.9679C129.41 25.9679 129.933 25.8232 130.278 25.5337C130.634 25.2441 130.811 24.8667 130.811 24.4014Z" fill="#333333"/>
</svg>
